<?xml version="1.0" encoding="UTF-8" standalone="no"?>
<svg
   width="816.5"
   height="238.25"
   viewBox="-702 0 816.5 238.25"
   version="1.2"
   id="svg15"
   xmlns="http://www.w3.org/2000/svg"
   xmlns:svg="http://www.w3.org/2000/svg"><defs
   id="defs15" />
<title
   id="title1">Notebook</title>
\n<g
   id="g1"
   transform="translate(-230,-444)">
  <path
     fill="#000000"
     fill-rule="evenodd"
     d="m 319.5,676 -7,-5 -4.5,-4.5 -9.375,-18.5 -4.125,-15 -0.5,-4.5 -2,-2 v -1 l 1.5,-1.5 3.5,3.5 0.5,2.5 4,14 2,5 7.5,14.5 4.5,4.5 h 1 l 4.5,4.5 v 2 l -1.5,1.5"
     id="path1" />
</g>
<g
   id="g2"
   transform="translate(-230,-444)">
  <path
     fill="#000000"
     fill-rule="evenodd"
     d="m -213.5,672 -2.25,-0.25 -0.25,-1.25 -1,-1 1.5,-1.5 h 1 l 1.5,-1.5 0.625,-3.5 1.875,-3 3,-4 2,-3 0.75,-2 1.25,-5 0.125,-5 -1.25,-8 -1.375,-5.5 -1.5,-1.5 -5.5,1.25 -211.5,2.75 -1,1 -1,-1 -3.5,0.5 -8.5,-0.5 -0.5,-0.5 1.5,-1.5 h 3 l 1,1 1,-1 6,-1 1,1 1,-1 193.5,-1.5 31.5,-4.5 1.5,1.5 -0.25,2.25 -4.5,1.5 0.25,2.75 2.125,12 -0.125,5 -1.25,6 -1.25,4.5 -3,3 -3.375,6.5 -0.625,2.5 -3.5,3.5"
     id="path2" />
</g>
<g
   id="g3"
   transform="translate(-230,-444)">
  <path
     fill="#000000"
     fill-rule="evenodd"
     d="m -211,678.5 h -6 l -7.5,-1.5 -2,-2 -2.5,-0.625 -2,-0.875 -1.5,-0.5 -2,-2 -4.5,-0.625 -8,-1.875 -7,0.125 -4,1 -4,1.625 -6,1.375 -3,1 -20,7.875 -3,0.75 -14.5,-0.25 -2,-2 -1.5,-0.5 -5.5,-3.5 -3,-3 -2.5,-0.5 -5,-1.875 -10,-2.875 -16.5,0.25 -1,1 -1,-1 -1,1 -6.5,0.625 -28,7.75 -19,-1.125 -6.5,-1.25 -3,-3 h -2 l -2,-2 -3,-1 -2,-2 -2.5,-0.625 -4,-1.75 -2.5,-0.625 -2,-2 -1.5,-0.5 -2,-0.875 h -3 l -1.5,0.375 -1,-1 -1,1 -2.5,0.5 -7,2.125 -2,0.875 -5.5,3.5 -2,2 -2.25,-0.25 -0.25,-1.25 2.5,-2.5 6.5,-4.5 2,-0.75 8,-2.375 2,-0.875 1.5,-0.5 1,1 1,-1 4.5,0.75 2,0.75 2,1 1.5,0.5 2,2 4,1 1,1 0.5,-0.5 v -2 l -1.5,-1.5 h -1 l -2.5,-2.5 -5.5,-7.5 -0.5,-1.5 -2,-2 v -2 l -2,-2 -1.375,-5.5 -0.625,-8.5 2.5,-2.5 1.25,0.25 V 637 l 1.25,4.5 2,2 0.625,2.5 2.375,4.5 7.5,7.5 1.25,0.25 0.5,1.5 1.25,0.25 1.5,1.5 v 1 l -1.5,1.5 h -2.5 l 0.5,1 1.5,0.5 2,1 1.5,0.5 2,2 h 2 l 3,3 16.5,2.625 6,-0.125 32,-8.875 21,-2.5 2,0.25 3,1 4.5,0.625 2,2 3.5,0.5 5,1.875 2.5,0.625 2,2 1.5,0.5 7,4.875 3,0.875 h 11 l 3,-0.875 19,-7.75 9,-2.375 4,-1.625 4,-1 h 9 l 13,3.125 9,4.625 3,1 5,1.125 4,0.125 13,-2.375 7,-2.875 2.5,-1.375 6,-4 2.5,-1.375 3.5,-0.625 1,-1 2.5,2.5 -2.5,2.5 -3.5,0.625 -2.5,1.375 -6.5,4.5 -9,3.75 -13,2.25"
     id="path3" />
</g>
<g
   id="g4"
   transform="translate(-230,-444)">
  <path
     fill="#000000"
     fill-rule="evenodd"
     d="M 76,599 74.75,594.25 73.5,594 72,592.5 v -1 l -1.5,-1.5 -1.5,-0.5 -4,-2 -1.5,-0.5 -2.5,-2.5 -0.25,-1.25 -1.5,-0.5 -1.5,-6.75 0.25,-17.5 1.5,-1.5 2.5,2.5 -1,1 1,19 2,2 0.25,1.25 2.75,0.875 3.75,-0.375 0.25,1.25 0.5,0.5 2,-2 h 1 l 1.5,1.5 -1,1 1,1 1,4 2,2 v 3 l 2,2 v 1 L 79.5,600 H 77 v -0.5 L 76.5,599 H 76"
     id="path4" />
</g>
<g
   id="g5"
   transform="translate(-230,-444)">
  <path
     fill="#000000"
     fill-rule="evenodd"
     d="M 64.5,559 62.125,557.75 60,541.5 61.5,540 h 1 l 1.5,1.5 2,16 -1.5,1.5"
     id="path5" />
</g>
<g
   id="g6"
   transform="translate(-230,-444)">
  <path
     fill="#000000"
     fill-rule="evenodd"
     d="m 77,600 v 1.5 l -1.5,1.5 -3.5,0.5 h -4 l -8.5,-1.5 -2,-2 -3,-1 -4.5,-4.5 v -1 l -2,-2 v -2 l -2,-2 -0.375,-1.5 -0.625,-3.5 -2,-2 -0.5,-16.5 2.25,-13 0.75,-2 1,-2 0.5,-1.5 3.5,-3.5 h 1 l 2,-2 h 4 l 1.5,1.5 -0.25,1.25 -1.25,0.25 -1,1 -1,-1 -3,1 -2.5,2.5 -2.25,4.5 -2.25,13 0.25,12 0.875,4 2,5 0.375,1.5 2,2 v 2 l 2,2 v 1 l 2.5,2.5 1.5,0.5 4.5,2.5 1,1 1,-1 1,1 h 4 l 1,1 1,-1 5.5,-1 v 0.5 l 0.5,0.5 H 77"
     id="path6" />
</g>
<g
   id="g7"
   transform="translate(-230,-444)">
  <path
     fill="#000000"
     fill-rule="evenodd"
     d="m 103,620.5 -2.5,2.5 -5.5,0.75 -1.75,0.5 -0.25,1.25 -1.5,1.5 -30.5,0.125 -2,0.25 -3,1.25 h -8 l -2.5,0.375 -1,-1 -1,1 h -2 l -1,1 -1,-1 h -5 l -2,-2 L 30,626.375 28,625.5 26.5,625 23,621.5 21.75,612 21.625,593 23.25,583 23,520.5 l 4.5,-4.5 1.5,-0.5 4,-1.875 4,-1.25 2,-0.125 8,1.25 6,-0.25 2,-0.5 h 6 l 2,0.625 19,2.875 18.5,0.75 1.5,1.5 v 1 l 2,2 v 3 l 2,2 -3,94 m -65,1.875 3,-0.875 27.5,-0.5 1,1 1,-1 5.5,-0.75 4,0.5 18,-2.875 L 99.375,578 98.25,573 99.375,525 98.75,522.125 94,521.5 l -11,-0.125 -7,-1.625 -13,-1.5 -3,-0.875 -2,-0.875 -2,-0.25 -5,1.25 -16,0.25 -4.5,1.25 -3.5,3.5 1.5,47.5 v 6 l -3,20 1.5,23.5 1.5,1.5 h 1 l 2,2 6.5,-0.625"
     id="path7" />
</g>
<g
   id="g8"
   transform="translate(-230,-444)">
  <path
     fill="#000000"
     fill-rule="evenodd"
     d="m -39.5,590 -3.25,-0.25 -1.25,-3.25 1,-1 -2,-2 -1.5,-7.5 -0.125,-6 2.125,-15 2.125,-6 1.875,-4 5.5,-9.5 4.5,-4.5 h 1 l 1.5,1.5 -1,1 -8.5,14.5 -3,8 -2.125,15 0.625,9.5 3,3 0.375,1.5 0.625,3.5 -1.5,1.5"
     id="path8" />
</g>
<g
   id="g9"
   transform="translate(-230,-444)">
  <path
     fill="#000000"
     fill-rule="evenodd"
     d="m -75.5,615 h -1 l -1.5,-1.5 -0.625,-2.5 -2.375,-4.5 -2,-2 -0.5,-3.5 -1.125,-3 -0.375,-1.5 -2,-2 -2.25,-38.5 0.75,-6 2.125,-8 3.875,-9 6,-11 0.5,-1.5 1.5,-1.5 1.5,1.5 v 2 l -2,2 -0.5,1.5 -7,16 -2,7 -0.75,6 0.75,29 1.5,9.5 2,2 2,8 3,3 0.375,1.5 1.125,3 0.5,2.5 -1.5,1.5"
     id="path9" />
</g>
<g
   id="g10"
   transform="translate(-230,-444)">
  <path
     fill="#000000"
     fill-rule="evenodd"
     d="M 238.75,528.75 235.5,529 234,527.5 v -1 l -2,-2 -0.25,-12.5 0.75,-3 0.5,-3.5 2.5,-2.5 h 1 l 1.5,1.5 -2,2 -1.375,6.5 v 7 l 0.375,2.5 2.5,2.5 h 1 l 1.5,1.5 -1,1 -0.25,1.25"
     id="path10" />
</g>
<g
   id="g11"
   transform="translate(-230,-444)">
  <path
     fill="#000000"
     fill-rule="evenodd"
     d="m 253,674.5 -3.5,2.5 -1.5,-1.5 0.625,-2.5 32.875,-42 2,-3 4.75,-12 2.75,-24.5 -1.5,-1.5 -1.25,-0.25 -1.25,-3.25 -1.5,-1.5 -6.5,-4.5 -1.5,-0.5 -4.5,-4.5 -3,-5 -1.5,-1.5 h -2 l -1.5,-1.5 0.25,-2.25 4.25,-1.25 1.5,1.5 1,2 6.25,8.25 1.75,0.75 2,1 1.5,0.5 7,7 0.5,-0.5 1,-49.5 -13,-0.625 -5,-1.125 -3.5,-1.25 -6.5,-6.5 -0.375,-1.5 -0.625,-3.5 -0.5,-0.5 -1,1 -1.5,0.375 -3.5,0.625 -1.5,-1.5 -0.375,-2.5 v -7 l 1,-3 1.625,-3.75 1.625,-0.5 0.625,-5.75 1.125,-4 0.875,-2 0.5,-1.5 5.5,-5.5 4.5,-2.5 1.5,-0.5 2,-2 h 2 l 2,-2 6.5,-1.375 9.5,-0.625 1,-1 1,1 4.5,0.75 15,5.75 6,2.875 2.5,0.625 3,3 h 1 l 8.5,8.5 1,7 1.5,1.5 h 1 l 2.5,2.5 0.5,3.5 -0.25,6 -0.5,2 -0.875,4.875 L 336.5,525 335,523.5 v -1 l -0.5,-0.5 -5,5 -4.5,2.375 -3,1 -26.875,4.875 -0.125,46.5 2.5,-0.75 4.5,-2.5 3,-2 8,-6 8.5,-5.5 3,-3 h 2 l 1.5,1.5 -1,3 -1.5,1.5 h -2 l -4,4 -1.5,0.5 -2.5,1.5 -10.5,7.5 -10,5.75 -3,37.25 -1.5,1.5 h -1 l -1.5,1.5 -0.5,1.5 -6,9 -13,16 -8.875,12 -1.25,3 -0.375,1.5 -1.5,1.5 -3.5,2.5 M 265,506 v -0.5 l 0.5,-1.5 3.5,-6.5 6.5,-6.5 2,-1 5.5,-3.5 6,-2.875 3,-1 4.5,-0.625 1,-1 1,1 1.5,-1.5 -0.5,-0.5 -12.5,0.875 -6,1.75 -2,0.875 -7,4 -1.5,0.5 -1.5,1.5 -0.25,1.25 -1.25,0.25 -1.5,1.5 v 1 l -2,2 -0.5,3.5 0.25,5.5 1.25,1.5 m 38,23.5 17,-3.125 3,-1 2,-0.875 1.5,-0.5 5.5,-5.5 v -1 l 1,-1 -1,-1 0.375,-2.5 -0.125,-5 -0.75,-2 -2.5,-4.5 -2.5,-2.5 -3,-2 -4,-3 -2.5,-1.5 -5,-2 -3,-0.875 -4.5,-0.625 -1.5,1.5 -0.25,1.25 -2.25,0.25 -0.5,-0.5 2,-2 -0.25,-1.375 -5.75,0.5 -4.75,1.625 -0.25,1.25 2,2 v 2 l -0.5,0.5 -1,-1 h -1 l -3.5,-3.5 v -2 l -0.5,-0.5 -1,1 -1.5,0.5 -5.5,3.5 -2,1 -2.5,2.5 -3.5,5.5 -1.875,4 -1,3 -0.625,5.5 -1,1 1,1 v 5 l 2,2 v 1 l 2.5,2.5 3.5,1.25 6,1.125 9.75,0.625 0.5,-1.75 11.75,0.25 m 0,-47.5 v -1 h -1 v 1 h 1 m 7.5,3 0.5,-1 h -3.5 l -2,-2 h -2 l -0.5,0.5 1.5,1.5 6,1 m 3,1 0.5,-1 h -2.5 l -0.5,1 h 2.5 m 1.5,1 v -1 h -1 v 1 h 1 m 3,1 v -1 h -1 v 1 h 1 m 2,1 v -1 h -1 v 1 h 1 m 2,1 v -1 h -1 v 1 h 1 m 2,1 v -1 h -1 v 1 h 1 m 1,1 v -1 h -1 v 1 h 1 m 3.5,3 0.5,-0.5 -0.25,-1.25 -3.25,-1.25 -0.5,0.5 1.5,1.5 2,1 m 1.5,1 v -1 h -1 v 1 h 1 m 1,1 v -1 h -1 v 1 h 1 m 1,1 v -1 h -1 v 1 h 1 m 1.5,2 0.5,-0.5 -0.25,-1.25 -1.25,-0.25 -0.5,0.5 1.5,1.5 m -73,16 0.5,-0.5 v -6 l -1,-0.5 v 0.5 l -0.375,1.5 -0.625,3.5 1.5,1.5 m 7.5,52 v -1 h -1 v 1 h 1 m 70.5,-48 1.5,-1.5 0.375,-1.5 0.625,-3.5 -0.5,-0.5 -2.5,2.5 v 1 l -1,1 1,1.5 0.5,1"
     id="path11" />
</g>
<g
   id="g12"
   transform="translate(-230,-444)">
  <path
     fill="#000000"
     fill-rule="evenodd"
     d="m 217.75,546.75 -3.25,0.25 -2,-2 h -1 l -5.5,-5.5 -1,-6 -2,-2 -1.375,-19.5 2.875,-12 1,-3 0.5,-2.5 1.5,-1.5 1.25,0.25 -0.25,3.75 -3.75,15 -0.25,7 1.25,8 0.875,3 1.75,4 0.625,2.5 6.5,6.5 1.25,0.25 0.75,1.75 0.25,1.75"
     id="path12" />
</g>
<g
   id="g13"
   transform="translate(-230,-444)">
  <path
     fill="#000000"
     fill-rule="evenodd"
     d="m 188.5,569 -4,-1 -7.5,-7.5 -1.5,-2.5 -2.5,-3.5 -3.5,-6.5 -0.75,-2 -3.125,-16 -1.125,-17 2.125,-16 1,-4 2.625,-5.75 h 2.5 l -0.125,1.75 -3,8 -2.125,16 v 6 l 4,23 1.5,5.5 2,2 v 2 l 3,3 4.25,6.25 6.25,4.25 1.5,1.5 v 1 l -1.5,1.5"
     id="path13" />
</g>
<g
   id="g14"
   transform="translate(-230,-444)">
  <path
     fill="#000000"
     fill-rule="evenodd"
     d="m -123.25,648.75 -3.5,-1 -2.875,-7.75 -5.75,-10 -1.125,-3 -4,-16 -2.75,-17 0.75,-34 7,-33 7.125,-20 6.875,-14 2.5,-4.5 1.5,-1.5 h 1 l 1.5,1.5 -1,1 -6.375,12.5 -11,32 -5.875,33 v 27 l 3.75,21 3.125,11 1.875,4 6.875,13 0.625,2.5 1,1 -1,1 -0.25,1.25"
     id="path14" />
</g>
<g
   id="g15"
   transform="translate(-230,-444)">
  <path
     fill="#000000"
     fill-rule="evenodd"
     d="m -218,601.5 -25,3.75 -39,-0.125 -3,-0.625 -11,-3 -8,-3 -3,-0.875 -4.75,-0.75 -0.25,-2.375 1.5,-1.5 4.5,0.625 26,7.875 17.5,0.5 1,-1 1,1 19,-1 1,-1 1,1 24.25,-4.25 -4.25,-5.75 -5,-6 -0.5,-1.5 -2.5,-2.5 h -1 l -1.5,-1.5 -1.5,-2.5 -7.5,-9.5 -4,-4 v -2 l -1.5,-1.5 -1.25,-0.25 -1.25,-2.25 -12,-14 -2,-3 -19,-24 -1.5,-2.5 -5,-12 -1,-2 -0.75,-1.75 -1.5,-0.5 -0.25,-1.25 -2,-2 -0.625,-4.5 -3,-9 -3.875,-10 -0.5,-2.5 -1.5,-1.5 -0.5,0.5 -13.5,151.5 -1.5,5.5 -2.5,2.5 -1.25,-0.25 0.375,-2.75 0.625,-2 1.125,-8 0.625,-21 -25,-1.5 -10,-1.25 -46,-2.125 -5,0.625 -29.5,0.25 -1,1 -1,-1 -1,1 -20.25,1.75 1.75,-3.25 2.25,-3.25 9.25,-6.25 2,-1 1.5,-1.5 0.25,-1.25 2.25,-1.25 17.5,-14.5 2.5,-1.5 3.5,-3.5 v -1 l 13.5,-13.5 h 1 l 22.5,-22.5 39.5,-44.5 3.5,-4.5 5.5,-5.5 h 1 l 4.5,-4.5 1.5,-2.5 2.5,-3.5 1.5,-2.5 0.5,-1.5 4.5,-4.5 h 1 l 1.5,1.5 -4,4 -0.5,1.5 -7.5,11.5 -1.5,1.5 h -1 l -6.5,6.5 -8,10 -1.5,1.5 -1.25,0.25 -2.25,3.25 -31,35 -21.5,21.5 h -1 l -14.5,14.5 -0.25,1.25 -4.25,3.25 -24.5,20.5 -3.5,2.5 -2,1 -2.5,2.5 0.5,0.5 15.5,-2.5 4,0.125 2,0.25 69,1 5,-0.625 10,1.25 11.5,0.5 1,1 1,-1 9,1 1,-1 1,1 0.5,-0.5 13,-140 1,-1 -1,-1 2.5,-2.5 1,1 1.375,0.25 -0.875,17.5 1.5,0.25 1.5,1.5 -1,1 2,2 1.625,6.5 4.875,12 0.875,3 0.625,4.5 4,4 0.5,1.5 5,12 2.5,4.5 13,16 1.25,2.25 1.5,0.5 4.25,6.25 12,14 1,2 1.5,1.5 h 1 l 1.5,1.5 v 2 l 3,3 8,10 2,3 1.5,1.5 h 1 l 1.5,1.5 6.25,8.25 1.5,0.5 0.25,1.25 1.5,1.5 h 1 l 4.5,4.5 v 1 l -1.5,1.5 h -2 l -2,2 -4.5,0.5"
     id="path15" />
</g>
</svg>
