<?xml version="1.0" encoding="UTF-8" standalone="no"?>
<svg
   width="434.375"
   height="276"
   viewBox="-702 0 434.375 276"
   version="1.2"
   id="svg14"
   xmlns="http://www.w3.org/2000/svg"
   xmlns:svg="http://www.w3.org/2000/svg"><defs
   id="defs14" />
<title
   id="title1">Notebook</title>
\n<g
   id="g1"
   transform="translate(-517,-565)">
  <path
     fill="#000000"
     fill-rule="evenodd"
     d="m -181.5,841 h -1 l -2.5,-2.5 0.625,-3.5 0.875,-2 9.5,-12.5 21,-31 5.5,-5.5 h 1 l 1.5,1.5 -0.25,2.25 -1.5,0.5 -32.75,46.75 -0.5,1.5 -1,1 1,1 v 1 l -1.5,1.5"
     id="path1" />
</g>
<g
   id="g2"
   transform="translate(-517,-565)">
  <path
     fill="#000000"
     fill-rule="evenodd"
     d="m 149,684 h -1 v -1 h 1 v 1"
     id="path2" />
</g>
<g
   id="g3"
   transform="translate(-517,-565)">
  <path
     fill="#000000"
     fill-rule="evenodd"
     d="m 155.5,683 -6.25,-0.125 -0.25,-2.375 0.5,-0.5 1,1 1,-1 h 5 l 0.5,-0.5 -1,-1 1,-1 0.25,-1.25 1.25,-0.25 2,2 0.5,-0.5 0.75,-16.5 0.5,-3.75 3.75,-0.25 -0.5,1 h -1 l -0.5,0.5 1,1 -1,17.25 2,-0.125 2.5,-0.625 3,-3 h 2 l 3,-3 2.25,0.25 0.25,3.25 -2.5,2.5 -1.5,0.5 -5,3 -2,0.75 -5,1.25 -4,-0.125 -1.5,-0.375 -2,2"
     id="path3" />
</g>
<g
   id="g4"
   transform="translate(-517,-565)">
  <path
     fill="#000000"
     fill-rule="evenodd"
     d="m 155.5,657 -1.5,-1.5 v -2 l 1.5,-1.5 20.5,-4.625 3,0.25 1.5,0.375 0.5,0.5 -1.5,1.5 -8.5,2.5 -6,1 -4,1 -3.5,0.5 -2,2"
     id="path4" />
</g>
<g
   id="g5"
   transform="translate(-517,-565)">
  <path
     fill="#000000"
     fill-rule="evenodd"
     d="m 148.5,680 -0.5,-0.5 -1,-12.25 -2,0.25 -2,0.75 h -8.75 l -0.875,3.75 -0.625,1.75 -1.25,0.25 -1.5,-1.5 0.625,-5.5 3.625,-12.75 1.25,-0.25 2.5,-2.5 v -1 l 4.5,-4.5 h 2 l 2.5,2.5 0.5,1.5 0.875,2 0.875,3 1.25,10 0.5,13.75 -1.5,0.25 -1,1 m -7.5,-14.625 4.5,-1.375 1,1 0.5,-0.5 -0.25,-2.5 -1.5,-8 -1.25,-3.5 -0.5,-0.5 -3.5,3.5 -2.5,4.5 -0.75,2 -0.75,4.5 -1,1 0.5,0.5 5.5,-0.625"
     id="path5" />
</g>
<g
   id="g6"
   transform="translate(-517,-565)">
  <path
     fill="#000000"
     fill-rule="evenodd"
     d="m 106.75,671.75 -2.25,0.25 -3.5,-3.5 -1,-8 V 660 l -1,0.5 v 1 l -4.5,4.5 -1.5,0.5 -6,2.875 -4,1.25 -2,0.125 -5,-1.5 -1.5,-0.25 -1.5,-1.5 -0.5,-2.5 -0.125,-3 1.875,-7.75 4.75,-2.75 2,-0.875 3.5,-0.625 1,-1 1,1 3.5,0.625 2,0.875 1.5,0.5 5,5 0.5,-0.5 0.625,-3.5 1.625,-3.75 4.75,-2.625 4,-1.125 5.5,-0.5 4.5,4.5 -1,10 -5.5,5.5 -6,1 -1.5,1.5 0.375,1.5 0.375,2.75 m -0.75,-9 5,-1.5 1.5,-0.25 3.5,-3.5 1,-6 -3.5,-3.5 -1.5,0.375 -3,1.125 -2.5,0.5 -3.5,3.5 1.125,9.25 H 106 m -22,3.625 3,-1 2.5,-1.375 3,-2 2.25,-1.25 L 95,659.5 90.5,655 h -1 l -1,-1 -1,1 -1,-1 -2.5,0.5 -3,1.125 -1.5,0.375 -1,1 -1,-1 -0.5,0.5 -0.875,9.25 7.875,0.625"
     id="path6" />
</g>
<g
   id="g7"
   transform="translate(-517,-565)">
  <path
     fill="#000000"
     fill-rule="evenodd"
     d="m 54.5,676 -2.875,-3.5 -1.125,-3.5 -2.125,-12 0.125,-4 0.5,-3.5 0.5,-0.5 2,2 1.25,-0.25 0.75,-3.75 1.125,-3 0.375,-1.5 2.5,-2.5 7,1 2.5,2.5 0.25,11.5 -0.25,1.5 -1.5,1.5 -4.5,2.375 -3,1.25 -1.5,0.375 -1.5,1.5 1,11 -1.5,1.5 m 3.5,-18.5 2,-1 1.5,-0.5 2.5,-2.5 v -7 l -1.5,-1.5 -3,-1 -1.5,1.5 -1.375,5.5 -0.5,6.75 L 58,657.5 M 52,657 v -4.5 L 51,652 v 4.5 l 1,0.5"
     id="path7" />
</g>
<g
   id="g8"
   transform="translate(-517,-565)">
  <path
     fill="#000000"
     fill-rule="evenodd"
     d="m 153.5,613 -4,-5 -1.5,-0.375 -2.75,-0.375 -0.5,3.5 -2.25,0.25 -1.5,-1.5 1,-1 -0.75,-17.25 h 2.5 l 0.5,1.75 0.75,6.5 0.5,0.5 5,-5 1.25,-0.25 0.25,-1.25 -0.5,-0.5 -1,1 h -1 l -0.5,-0.5 1,-1 1.25,-3.25 1.75,-0.625 3.5,-0.625 1.5,1.5 -0.625,2.5 -0.875,2 -0.5,1.5 -4.5,4.5 h -1 l -1.5,1.5 v 1 l -1,1 0.5,0.5 3,1 3.5,3.5 0.5,1.5 0.25,1.75 -1.25,0.25 -1,1 M 153,593 v -1 h -1 v 1 h 1"
     id="path8" />
</g>
<g
   id="g9"
   transform="translate(-517,-565)">
  <path
     fill="#000000"
     fill-rule="evenodd"
     d="m 172,616.5 -6.5,-0.5 -2.5,-2.5 -0.375,-1.5 -0.125,-4 1.5,-8.5 1,-1 -1,-1 0.5,-1.5 1,-2 0.5,-1.5 3.5,-3.5 1.5,-0.5 2,-0.875 4,-1.25 2,0.125 1.5,0.5 0.5,0.5 -1,1 -0.25,1.25 -8.25,2.25 -3.5,3.5 -1,10 0.5,0.5 1,-1 1.5,-0.375 6.5,-2.625 1,-1 1,1 1.25,0.25 0.25,1.25 -1.5,1.5 -1.5,0.5 -7,3 -3.75,0.75 -0.25,1.25 2.5,2.5 2.5,-0.5 7,-2 2.75,-0.25 0.25,2.25 -2.5,2.5 -3.5,0.5 -3,1"
     id="path9" />
</g>
<g
   id="g10"
   transform="translate(-517,-565)">
  <path
     fill="#000000"
     fill-rule="evenodd"
     d="m 134,607.5 -1.25,2.25 -7.75,2.5 -6.75,0.625 -0.25,-1.375 1.5,-1.5 3.25,-0.25 3.75,-11.75 0.375,-4.75 -5.875,0.125 -1.75,-0.625 -0.25,-2.25 1.5,-1.5 1,1 4.5,-0.75 9,-2.75 4.75,-0.375 0.25,2.375 -1.5,1.5 -6,1 -1.5,1.5 -0.625,6.5 -0.875,3 -1.125,3 -0.125,1.75 1.75,-0.25 h 2 l 1.5,0.5 0.5,0.5"
     id="path10" />
</g>
<g
   id="g11"
   transform="translate(-517,-565)">
  <path
     fill="#000000"
     fill-rule="evenodd"
     d="M 104,611.375 97.5,611 96,609.5 l 0.75,-6.5 2.75,-7 4.5,-8.5 2.5,-2.5 1.5,1.5 v 2 l -2,2 -0.5,1.5 -3.875,8 -1,3 -0.5,4.75 3.875,-0.25 6,-2 2.5,-0.5 2.5,2.5 -1,1 v 1 l -1.5,1.5 -1,-1 -1,1 -1,-1 -5.5,1.375"
     id="path11" />
</g>
<g
   id="g12"
   transform="translate(-517,-565)">
  <path
     fill="#000000"
     fill-rule="evenodd"
     d="m 72.5,588 -1,-1 -1,1 -1.5,0.5 -2,1 -1.5,0.5 -1.5,1.5 -0.625,7.5 -0.75,4 -0.5,6.875 5.375,0.125 1.5,1.5 v 1 l -1.5,1.5 -5.5,0.5 -8.5,1.5 -1,-1 -1,1 h -1 l -1.5,-1.5 2.5,-2.5 7,-1 0.5,-0.5 -1,-1 0.5,-5.5 2,-8 0.5,-3.5 -0.5,-0.5 -1,1 -6.5,1.5 -3,1 -2.5,0.5 -1.5,-1.5 v -2 l 1.5,-1.5 4.5,-0.5 4,-1.125 7,-2.875 4,-1.875 3,-1 6.5,-0.625 0.5,0.5 -1,1 v 1 l -1.5,1.5 h -1 l -1,1"
     id="path12" />
</g>
<g
   id="g13"
   transform="translate(-517,-565)">
  <path
     fill="#000000"
     fill-rule="evenodd"
     d="m 200,700.25 -63,3.625 -2,-0.25 -3,-1 -20,-4 -8.5,-0.625 -1,-1 -1,1 -19,-3 -1,1 -1,-1 -29.5,-4.625 -3,-1 -10,-4.75 -3.5,-0.625 -3,-3 -3,-2 -4,-3 -3,-2 -8,-6 -6.5,-6.5 -0.5,-1.5 -3,-7 -0.75,-3 v -8 L 5.625,635 6,633.5 3.5,631 2,630.75 l -11,-3.375 -8,-2.625 -8,-0.125 -5,1 h -3 l -7,-1.375 -3.75,-1.5 -0.25,-1.25 1.5,-1.5 1,1 1.5,0.375 2.75,0.375 0.25,-1.25 1.5,-1.5 1.5,-0.375 20,-0.375 3,-0.875 13,-3.875 5,-2 4.5,-2.5 4.5,-4.5 -0.625,-5.5 -1.625,-5 -0.75,-7.5 3.5,-3.5 1.5,-0.5 18,-6.875 30,-7.375 8,0.25 27.5,-3.5 1,1 1,-1 73,3 1,1 1,-1 2.5,0.5 3,1.125 2,0.5 16,1.625 5.5,1.25 5,5 2,1 5.5,3.5 2,1 1.5,0.5 4.5,4.5 0.5,1.5 4,10 5,8 2,5 4,14 4.875,14 0.875,5 0.125,16 -0.875,6 -3.125,11 -2,5 -0.375,1.5 -4.5,4.5 -1.5,0.5 -7,3 -30,6.75 m 2,-5 16,-2.875 16,-5 1.5,-0.375 4.5,-4.5 3.5,-12.5 2,-11 -0.125,-11 -0.875,-5 -1,-4 -5,-13 -4,-14 -0.5,-2.5 -3,-3 -2.375,-4.5 -3.125,-8 -0.5,-2.5 -4.5,-4.5 -1.5,-0.5 -8.5,-4.5 -5,-5 -21.5,-2.875 -8,-1.5 -28.5,-1.625 -1,-1 -1,1 -44,-1 -1,-1 -1,1 -38.5,3.75 -24,5.875 -4,1.75 -12,4.25 -1.5,0.375 -2.5,2.5 0.75,4.5 1.5,4 0.75,4.5 1,1 -1,1 -1,4 -3.5,3.5 -2,1 -3,2 -2.5,1.375 -3,1.125 -15.5,4.5 -0.5,1 h 0.5 l 2.5,0.625 2,0.75 8,2.375 2,0.75 2,1 1.5,0.5 2.5,2.5 v 2 l 1,1 -1,1 -0.625,3.5 -2.875,7 v 3 l 2.125,6 3.375,6.5 3.5,3.5 1.5,0.5 12.5,9.5 3,2 4,4 3.5,0.625 2,0.75 2.5,0.625 2,2 1.5,0.375 3,1.125 4,1 78,11.875 69,-3.125"
     id="path13" />
</g>
<g
   id="g14"
   transform="translate(-517,-565)">
  <path
     fill="#000000"
     fill-rule="evenodd"
     d="m -96.5,838 h -2 l -3,-3 h -1 l -6.5,-6.5 -2,-3 -16,-19 -3.5,-5.5 -0.5,-1.5 -2,-2 -0.625,-2.5 -2.875,-7 -0.5,-2.5 -0.5,-0.5 -2,2 -2.5,-2.5 -0.625,-2.5 -0.75,-2 -0.625,-3.5 -1,-1 1,-1 0.625,-10.5 0.875,-5 2,-8 -0.25,-6 -1.25,-3.5 -1.5,-1.5 h -1 l -4.5,-4.5 -2,-3 -16.25,-21.25 -1.5,-0.5 v -2.5 l 2.25,-0.25 7.5,7.5 1,2 10.5,13.5 1.75,2.75 1.25,0.25 6,6 0.5,-0.5 5.5,-25.5 0.625,-45 -0.375,-2 -13.75,-0.75 -5,-0.875 -9,-3 -4.5,-2.375 -7.5,-7.5 -0.5,-1.5 -0.875,-2 -0.875,-3 0.125,-15 0.5,-2 2.125,-5 4.5,-6.5 9.5,-9.5 8.5,-6.5 3,-2 6,-2.875 3,-0.875 9,-0.25 28,6 9,3 2.5,0.5 2,2 1.5,0.5 2,1 1.5,0.5 9.5,9.5 1,3 2,2 0.625,2.5 0.75,2 1.125,4 -0.125,6 -0.375,2.5 -2,2 v 1 l -4.5,4.5 -1.5,0.5 -5,2.875 -5,2.125 -21,8 -14,3.75 -8.75,0.75 v 2 l 1.125,9 -1,38 -1.875,11 -1,4 -0.5,4.5 0.5,0.5 1.5,-1.5 v -1 l 6.5,-6.5 18.5,-16.5 9,-7 1.5,-0.5 1,-1 1.5,1.5 v 2 l -2,2 v 1 l -1.5,1.5 h -2 l -3,3 -2.5,1.5 -17.5,15.5 -6.5,6.5 v 1 l -4.5,4.5 h -1 l -1.5,1.5 -5.375,23.5 0.375,14.5 0.5,0.5 2,-2 1.25,0.25 3.875,11.75 1.875,4 4.5,7.5 4,5 13.5,15.5 1.5,2.5 6.5,6.5 h 1 l 3.5,3.5 v 1 l -1.5,1.5 m -24.5,-176.625 15,-4 23,-9 5,-2.875 1.5,-0.5 4.5,-4.5 0.375,-1.5 1.25,-3 0.125,-2 -1.5,-5 -0.75,-2 -2,-4 -0.5,-1.5 -9.5,-9.5 -1.5,-0.5 -4,-2 -5,-2 -10,-3 -14,-3 -6.75,-0.375 -0.25,1.375 1,1 -1,1 -0.25,2.25 -1.25,0.25 -0.5,-0.5 1,-1 -0.125,-4.25 -1.375,-0.25 -2.5,2.5 -0.375,1.5 -0.625,3.5 -1.5,1.5 -0.5,-0.5 -0.625,-3.5 v -2 l 1.25,-3 0.375,-1.5 1,-1 -0.5,-0.5 -5.5,1.625 -6.5,3.375 -3.5,2.5 -2.5,1.5 -14.5,14.5 -3.5,5.5 -0.875,2 -0.875,3 v 13 l 0.875,3 2.375,4.5 3.5,3.5 4.5,2.375 9,3.125 4,0.75 15.5,-0.25 1,1 1,-1 7.5,-0.625 M -132,736 v -1 h -1 v 1 h 1 m -5,47 v -1 h -1 v 1 h 1"
     id="path14" />
</g>
</svg>
